<svg width="159" height="40" viewBox="0 0 159 40" fill="none" xmlns="http://www.w3.org/2000/svg">
<path d="M23.8096 22.3812L9.52393 27.6193V23.5717L19.83 19.6841L19.7245 19.8546V19.4487L19.83 19.6192L9.52393 15.9526V11.905L23.8096 17.1431V22.3812Z" fill="#5E636E"/>
<path d="M31.6668 9.04785V30.4764H27.8573V9.04785H31.6668Z" fill="#5E636E"/>
<path d="M35.4763 22.3812V17.1431L50.0001 11.905V15.9526L39.694 19.6192L39.7996 19.4487V19.8546L39.694 19.6841L50.0001 23.5717V27.6193L35.4763 22.3812Z" fill="#5E636E"/>
<path d="M67.9312 14.4916C71.0398 14.4916 73.1122 16.6554 73.1122 19.9164C73.1122 23.1926 70.9026 25.3716 67.596 25.3716H62.8569V14.4916H67.9312ZM64.7922 23.5431H67.9617C69.8969 23.5431 71.1769 22.0954 71.1769 19.9164C71.1769 17.7526 69.7446 16.3202 67.596 16.3202H64.7922V23.5431Z" fill="#5E636E"/>
<path d="M81.3361 20.4954C82.5247 20.7545 83.3171 21.5621 83.3171 22.5069V25.3716H81.3818V22.6897C81.3818 21.9126 80.6656 21.3945 79.599 21.3945H76.4142V25.3716H74.479V14.4916H79.9342C82.1437 14.4916 83.6066 15.7564 83.6066 17.6612C83.6066 19.0326 82.6923 20.1602 81.3361 20.465V20.4954ZM76.4142 19.5659H80.0866C81.0313 19.5659 81.6713 18.9107 81.6713 17.9354C81.6713 16.9602 80.9704 16.3202 79.9342 16.3202H76.4142V19.5659Z" fill="#5E636E"/>
<path d="M93.1788 25.3716L92.1579 22.7964H87.4341L86.4131 25.3716H84.3712L88.3788 14.4916H91.2131L95.2207 25.3716H93.1788ZM88.0284 21.0897H91.5636L89.8112 16.305H89.7807L88.0284 21.0897Z" fill="#5E636E"/>
<path d="M101.094 23.8174C103.166 23.8174 104.553 22.8269 104.553 21.3488V21.044H99.6462V19.3373H106.29V25.3716H104.583V24.0002H104.553C103.913 24.9907 102.435 25.6459 100.835 25.6459C97.65 25.6459 95.5319 23.3602 95.5319 19.9316C95.5319 16.5793 97.7567 14.3545 101.094 14.3545C103.364 14.3545 105.3 15.8478 105.924 18.0726H104.035C103.761 16.945 102.587 16.1831 101.094 16.1831C98.9148 16.1831 97.4672 17.6764 97.4672 19.9316C97.4672 22.2631 98.9148 23.8174 101.094 23.8174Z" fill="#5E636E"/>
<path d="M118.921 19.9774C118.921 23.3754 116.666 25.6459 113.298 25.6459C109.915 25.6459 107.66 23.3754 107.66 19.9774C107.66 16.6097 109.915 14.3545 113.298 14.3545C116.666 14.3545 118.921 16.6097 118.921 19.9774ZM109.595 19.9774C109.595 22.2783 111.073 23.8174 113.298 23.8174C115.508 23.8174 116.986 22.2783 116.986 19.9774C116.986 17.7069 115.508 16.1831 113.298 16.1831C111.073 16.1831 109.595 17.7069 109.595 19.9774Z" fill="#5E636E"/>
<path d="M128.435 14.4916H130.37V25.3716H127.216L122.263 16.0764H122.233V25.3716H120.297V14.4916H123.65L128.404 23.7869H128.435V14.4916Z" fill="#5E636E"/>
<path d="M139.935 16.3202H133.825V18.7278H139.326V20.5564H133.825V25.3716H131.89V14.4916H139.935V16.3202Z" fill="#5E636E"/>
<path d="M143.393 23.665H149.519V25.3716H141.458V14.4916H143.393V23.665Z" fill="#5E636E"/>
<path d="M153.252 18.8802L156.147 14.4916H158.326L154.197 20.6631V25.3716H152.262V20.6631L148.147 14.4916H150.311L153.222 18.8802H153.252Z" fill="#5E636E"/>
</svg>
